<svg xmlns="http://www.w3.org/2000/svg" xmlns:xlink="http://www.w3.org/1999/xlink" version="1.1" x="0px" y="0px" viewBox="0 0 100 125" style="enable-background:new 0 0 100 100;" xml:space="preserve"><style type="text/css">
	.st0{fill:none;stroke:#000000;stroke-width:4;stroke-linecap:round;stroke-linejoin:round;stroke-miterlimit:10;}
	.st1{fill:none;stroke:#000000;stroke-width:4;stroke-linecap:round;stroke-linejoin:round;}
	.st2{fill:none;stroke:#000000;stroke-width:4;stroke-linecap:round;stroke-linejoin:round;stroke-dasharray:0,7.2289;}
	.st3{fill:none;}
	.st4{fill:none;stroke:#000000;stroke-width:4;stroke-linecap:round;stroke-linejoin:round;stroke-dasharray:0,6.6667;}
	.st5{fill:none;stroke:#000000;stroke-width:4;stroke-linecap:round;stroke-linejoin:round;stroke-dasharray:0,7;}
</style><g><path d="M71.6,14.3c-0.8-0.8-2-0.8-2.8,0l-6.4,6.4l-46,46c-0.3,0.3-0.5,0.7-0.6,1.2L13.7,84c-0.1,0.6,0.1,1.2,0.6,1.7   c0.4,0.4,0.9,0.6,1.4,0.6c0.1,0,0.2,0,0.3,0l16.3-2.1c0.4-0.1,0.8-0.3,1.2-0.6l46-46l6.4-6.4c0.4-0.4,0.6-0.9,0.6-1.4   s-0.2-1-0.6-1.4L71.6,14.3z M63.8,24.9l4.2,4.2L25.6,71.6l-4.2-4.2L63.8,24.9z M18,82l0.1-0.9l0.8,0.8L18,82z M23.9,81.2l-5.1-5.1   l0.7-5l9.5,9.5L23.9,81.2z M32.7,78.6l-4.2-4.2L70.9,32l4.2,4.2L32.7,78.6z M77.9,33.4L66.6,22.1l3.5-3.5l11.3,11.3L77.9,33.4z"/></g><text x="0" y="115" fill="#000000" font-size="5px" font-weight="bold" font-family="'Helvetica Neue', Helvetica, Arial-Unicode, Arial, Sans-serif">Created by Icon Depot</text><text x="0" y="120" fill="#000000" font-size="5px" font-weight="bold" font-family="'Helvetica Neue', Helvetica, Arial-Unicode, Arial, Sans-serif">from the Noun Project</text></svg>